<svg width="656" height="170" viewBox="0 0 656 170" fill="none" xmlns="http://www.w3.org/2000/svg">
<path d="M41.5625 89.9375C29.0625 89.9375 19.8333 86.6875 13.875 80.1875C7.95833 73.6875 5 63.5833 5 49.875C5 23.5 17.375 10.3125 42.125 10.3125C45.5 10.3125 49.0417 10.6458 52.75 11.3125C56.5 11.9792 59.625 12.9167 62.125 14.125C64.625 15.2917 65.875 16.6042 65.875 18.0625C65.875 19.1042 65.4583 20.4792 64.625 22.1875C63.7917 23.8542 62.8125 25.3333 61.6875 26.625C60.5625 27.9167 59.5625 28.5625 58.6875 28.5625C58.4375 28.5625 57.8333 28.3542 56.875 27.9375C54.7917 27.1042 52.6042 26.4167 50.3125 25.875C48.0208 25.2917 45.1875 25 41.8125 25C35.2708 25 30.4167 27.0833 27.25 31.25C24.125 35.375 22.5625 41.625 22.5625 50C22.5625 58.375 24.1458 64.6875 27.3125 68.9375C30.4792 73.1875 35.2292 75.3125 41.5625 75.3125C44.7708 75.3125 47.6667 75.0417 50.25 74.5V60.4375H40.4375C39.2708 60.4375 38.4167 60 37.875 59.125C37.375 58.25 37.125 56.8333 37.125 54.875V51.3125C37.125 49.3958 37.375 48 37.875 47.125C38.4167 46.25 39.2708 45.8125 40.4375 45.8125H63C64.5833 45.8125 65.7292 46.1667 66.4375 46.875C67.1458 47.5417 67.5 48.6458 67.5 50.1875V81.125C67.5 84.4583 64.7083 86.7708 59.125 88.0625C53.5417 89.3125 47.6875 89.9375 41.5625 89.9375ZM106.438 89.9375C97.6458 89.9375 90.9375 87.3542 86.3125 82.1875C81.7292 77.0208 79.4375 69.5833 79.4375 59.875C79.4375 50.2083 81.7292 42.8125 86.3125 37.6875C90.9375 32.5625 97.6458 30 106.438 30C115.229 30 121.896 32.5625 126.438 37.6875C131.021 42.7708 133.312 50.1667 133.312 59.875C133.312 69.5833 131.021 77.0208 126.438 82.1875C121.896 87.3542 115.229 89.9375 106.438 89.9375ZM106.438 76.875C109.938 76.875 112.5 75.4583 114.125 72.625C115.792 69.7917 116.625 65.5417 116.625 59.875C116.625 54.25 115.792 50.0208 114.125 47.1875C112.5 44.3542 109.938 42.9375 106.438 42.9375C99.5208 42.9375 96.0625 48.5833 96.0625 59.875C96.0625 65.5 96.8958 69.75 98.5625 72.625C100.271 75.4583 102.896 76.875 106.438 76.875ZM161.25 89.9375C155.958 89.9375 151.917 88.4583 149.125 85.5C146.375 82.5 145 77.9583 145 71.875V8.8125C145 6.39583 147.229 5.1875 151.688 5.1875H154.812C157.104 5.1875 158.771 5.5 159.812 6.125C160.896 6.70833 161.438 7.60417 161.438 8.8125V72.0625C161.438 73.7708 161.75 75 162.375 75.75C163 76.5 164.042 76.875 165.5 76.875C165.875 76.875 166.438 76.7917 167.188 76.625C167.396 76.5833 167.604 76.5417 167.812 76.5C168.021 76.4583 168.25 76.4375 168.5 76.4375C169.125 76.4375 169.688 77 170.188 78.125C170.729 79.2083 171.146 80.4375 171.438 81.8125C171.729 83.1458 171.875 84.0208 171.875 84.4375C171.875 88.1042 168.333 89.9375 161.25 89.9375ZM196.625 89.9375C192.583 89.9375 188.979 88.7708 185.812 86.4375C182.688 84.0625 180.229 80.625 178.438 76.125C176.688 71.5833 175.812 66.1667 175.812 59.875C175.812 53.8333 176.729 48.5625 178.562 44.0625C180.396 39.5625 183.062 36.1042 186.562 33.6875C190.104 31.2292 194.333 30 199.25 30C203.667 30 207.438 31.1458 210.562 33.4375V8.8125C210.562 6.39583 212.792 5.1875 217.25 5.1875H220.375C222.667 5.1875 224.333 5.5 225.375 6.125C226.458 6.70833 227 7.60417 227 8.8125V69.375C227 72.8333 227.083 75.5208 227.25 77.4375C227.458 79.3542 227.729 81.25 228.062 83.125C228.271 84.25 228.375 85.0417 228.375 85.5C228.375 86.3333 227.583 87.0208 226 87.5625C224.458 88.1042 222.688 88.5 220.688 88.75C218.729 89 217.146 89.125 215.938 89.125C214.646 89.125 213.729 88.625 213.188 87.625C212.688 86.625 212.229 85.1667 211.812 83.25L211.438 81.5625C210.104 84.0208 208.125 86.0417 205.5 87.625C202.875 89.1667 199.917 89.9375 196.625 89.9375ZM201.5 76.4375C205 76.4375 208.021 74.25 210.562 69.875V45.0625C207.938 43.6458 205.354 42.9375 202.812 42.9375C195.896 42.9375 192.438 48.5833 192.438 59.875C192.438 70.9167 195.458 76.4375 201.5 76.4375ZM267.688 89.9375C257.938 89.9375 250.667 87.3333 245.875 82.125C241.083 76.875 238.688 69.6042 238.688 60.3125C238.688 49.8542 241.083 42.1875 245.875 37.3125C250.667 32.4375 257.271 30 265.688 30C271.271 30 275.833 31.2708 279.375 33.8125C282.958 36.3542 285.562 39.7708 287.188 44.0625C288.854 48.3542 289.688 53.2083 289.688 58.625C289.688 59.25 289.312 60.0833 288.562 61.125C287.854 62.1667 287.042 63.1042 286.125 63.9375C285.208 64.7708 284.5 65.1875 284 65.1875H255.688C256.062 69.4375 257.312 72.4583 259.438 74.25C261.604 76 264.604 76.875 268.438 76.875C270.521 76.875 272.396 76.6458 274.062 76.1875C275.771 75.6875 277.583 75.0417 279.5 74.25C280.667 73.7083 281.458 73.4375 281.875 73.4375C282.625 73.4375 283.438 73.9792 284.312 75.0625C285.229 76.1042 286 77.3125 286.625 78.6875C287.292 80.0625 287.625 81.125 287.625 81.875C287.625 83.5833 286.458 85.0417 284.125 86.25C281.833 87.4583 279.104 88.375 275.938 89C272.812 89.625 270.062 89.9375 267.688 89.9375ZM273.688 54.25C273.688 50.8333 273.021 48.1042 271.688 46.0625C270.354 43.9792 268.354 42.9375 265.688 42.9375C260.188 42.9375 256.854 46.7083 255.688 54.25H273.688ZM307.562 89.1875C303.146 89.1875 300.938 88.0208 300.938 85.6875V50.4375C300.938 45.1042 300.583 40.6667 299.875 37.125C299.667 36 299.562 35.2083 299.562 34.75C299.562 33.9167 300.333 33.25 301.875 32.75C303.458 32.2083 305.229 31.8125 307.188 31.5625C309.188 31.3125 310.792 31.1875 312 31.1875C313.292 31.1875 314.188 31.6667 314.688 32.625C315.229 33.5833 315.708 34.9792 316.125 36.8125L316.5 38.4375C318.25 36.1042 320.583 34.125 323.5 32.5C326.458 30.8333 329.625 30 333 30C338.583 30 342.708 31.4583 345.375 34.375C348.042 37.2917 349.375 41.8125 349.375 47.9375V85.6875C349.375 88.0208 347.125 89.1875 342.625 89.1875H339.562C335.146 89.1875 332.938 88.0208 332.938 85.6875V50.4375C332.938 48.1875 332.396 46.4792 331.312 45.3125C330.271 44.1458 328.562 43.5625 326.188 43.5625C324.188 43.5625 322.417 44.2292 320.875 45.5625C319.333 46.8958 318.167 48.375 317.375 50V85.6875C317.375 88.0208 315.125 89.1875 310.625 89.1875H307.562Z" fill="#FF9900"/>
<path d="M411.188 89.9375C405.938 89.9375 401.312 89.4167 397.312 88.375C393.354 87.2917 390.312 85.9792 388.188 84.4375C386.104 82.8958 385.062 81.4375 385.062 80.0625C385.062 78.9792 385.458 77.6458 386.25 76.0625C387.083 74.4792 388.062 73.125 389.188 72C390.312 70.8333 391.25 70.25 392 70.25C392.458 70.25 393.438 70.6458 394.938 71.4375C397.188 72.6042 399.312 73.5417 401.312 74.25C403.354 74.9583 405.688 75.3125 408.312 75.3125C411.229 75.3125 413.688 74.75 415.688 73.625C417.729 72.4583 418.75 70.4375 418.75 67.5625C418.75 65.8958 418.229 64.4583 417.188 63.25C416.146 62.0417 414.812 61.0208 413.188 60.1875C411.562 59.3542 409.354 58.375 406.562 57.25L401.625 55.125C398.625 53.6667 396.042 52.0625 393.875 50.3125C391.75 48.5625 390 46.25 388.625 43.375C387.292 40.5 386.625 36.9792 386.625 32.8125C386.625 27.7292 387.875 23.5 390.375 20.125C392.875 16.75 396.125 14.2708 400.125 12.6875C404.125 11.1042 408.417 10.3125 413 10.3125C416.75 10.3125 420.146 10.7083 423.188 11.5C426.229 12.25 428.604 13.2292 430.312 14.4375C432.062 15.6458 432.938 16.8542 432.938 18.0625C432.938 19.0625 432.604 20.3542 431.938 21.9375C431.312 23.4792 430.521 24.8333 429.562 26C428.604 27.1667 427.708 27.75 426.875 27.75C426.5 27.75 425.833 27.5417 424.875 27.125C423.333 26.5 421.771 26 420.188 25.625C418.646 25.2083 416.75 25 414.5 25C410.625 25 407.938 25.625 406.438 26.875C404.938 28.0833 404.188 29.5208 404.188 31.1875C404.188 33.1042 404.688 34.7083 405.688 36C406.729 37.2917 408.021 38.3542 409.562 39.1875C411.146 40.0208 413.333 40.9792 416.125 42.0625C420.333 43.8542 423.771 45.5625 426.438 47.1875C429.104 48.7708 431.396 51.0625 433.312 54.0625C435.271 57.0625 436.25 60.8958 436.25 65.5625C436.25 71.2708 435.042 75.9583 432.625 79.625C430.25 83.25 427.167 85.875 423.375 87.5C419.625 89.125 415.562 89.9375 411.188 89.9375ZM508.938 30C514.479 30 518.562 31.4583 521.188 34.375C523.854 37.2917 525.188 41.8125 525.188 47.9375V85.6875C525.188 88.0208 522.938 89.1875 518.438 89.1875H515.375C510.958 89.1875 508.75 88.0208 508.75 85.6875V50.4375C508.75 48.1875 508.229 46.4792 507.188 45.3125C506.188 44.1458 504.5 43.5625 502.125 43.5625C500.042 43.5625 498.271 44.2083 496.812 45.5C495.396 46.75 494.25 48.2083 493.375 49.875V85.6875C493.375 88.0208 491.146 89.1875 486.688 89.1875H483.562C479.146 89.1875 476.938 88.0208 476.938 85.6875V50.4375C476.938 48.1875 476.417 46.4792 475.375 45.3125C474.375 44.1458 472.708 43.5625 470.375 43.5625C468.375 43.5625 466.604 44.2292 465.062 45.5625C463.562 46.8958 462.417 48.375 461.625 50V85.6875C461.625 88.0208 459.375 89.1875 454.875 89.1875H451.812C447.396 89.1875 445.188 88.0208 445.188 85.6875V50.4375C445.188 45.1042 444.833 40.6667 444.125 37.125C443.917 36 443.812 35.2083 443.812 34.75C443.812 33.9167 444.583 33.25 446.125 32.75C447.708 32.2083 449.479 31.8125 451.438 31.5625C453.438 31.3125 455.042 31.1875 456.25 31.1875C457.542 31.1875 458.438 31.6667 458.938 32.625C459.479 33.5833 459.958 34.9792 460.375 36.8125L460.75 38.4375C462.5 36.0625 464.833 34.0625 467.75 32.4375C470.667 30.8125 473.812 30 477.188 30C481.021 30 484.125 30.6875 486.5 32.0625C488.917 33.4375 490.688 35.5625 491.812 38.4375C493.688 36.0625 496.146 34.0625 499.188 32.4375C502.229 30.8125 505.479 30 508.938 30ZM545.75 21.3125C543.417 21.3125 541.708 21.0208 540.625 20.4375C539.583 19.8542 539.062 18.9583 539.062 17.75V8.8125C539.062 7.60417 539.604 6.70833 540.688 6.125C541.771 5.5 543.458 5.1875 545.75 5.1875H548.812C551.104 5.1875 552.792 5.5 553.875 6.125C554.958 6.70833 555.5 7.60417 555.5 8.8125V17.75C555.5 18.9583 554.958 19.8542 553.875 20.4375C552.833 21.0208 551.146 21.3125 548.812 21.3125H545.75ZM545.75 89.1875C541.292 89.1875 539.062 88.0208 539.062 85.6875V34.1875C539.062 33.0208 539.604 32.1458 540.688 31.5625C541.771 30.9792 543.458 30.6875 545.75 30.6875H548.812C551.104 30.6875 552.792 30.9792 553.875 31.5625C554.958 32.1458 555.5 33.0208 555.5 34.1875V85.6875C555.5 88.0208 553.271 89.1875 548.812 89.1875H545.75ZM585.25 89.9375C579.958 89.9375 575.917 88.4583 573.125 85.5C570.375 82.5 569 77.9583 569 71.875V8.8125C569 6.39583 571.229 5.1875 575.688 5.1875H578.812C581.104 5.1875 582.771 5.5 583.812 6.125C584.896 6.70833 585.438 7.60417 585.438 8.8125V72.0625C585.438 73.7708 585.75 75 586.375 75.75C587 76.5 588.042 76.875 589.5 76.875C589.875 76.875 590.438 76.7917 591.188 76.625C591.396 76.5833 591.604 76.5417 591.812 76.5C592.021 76.4583 592.25 76.4375 592.5 76.4375C593.125 76.4375 593.688 77 594.188 78.125C594.729 79.2083 595.146 80.4375 595.438 81.8125C595.729 83.1458 595.875 84.0208 595.875 84.4375C595.875 88.1042 592.333 89.9375 585.25 89.9375ZM628.812 89.9375C619.062 89.9375 611.792 87.3333 607 82.125C602.208 76.875 599.812 69.6042 599.812 60.3125C599.812 49.8542 602.208 42.1875 607 37.3125C611.792 32.4375 618.396 30 626.812 30C632.396 30 636.958 31.2708 640.5 33.8125C644.083 36.3542 646.688 39.7708 648.312 44.0625C649.979 48.3542 650.812 53.2083 650.812 58.625C650.812 59.25 650.438 60.0833 649.688 61.125C648.979 62.1667 648.167 63.1042 647.25 63.9375C646.333 64.7708 645.625 65.1875 645.125 65.1875H616.812C617.188 69.4375 618.438 72.4583 620.562 74.25C622.729 76 625.729 76.875 629.562 76.875C631.646 76.875 633.521 76.6458 635.188 76.1875C636.896 75.6875 638.708 75.0417 640.625 74.25C641.792 73.7083 642.583 73.4375 643 73.4375C643.75 73.4375 644.562 73.9792 645.438 75.0625C646.354 76.1042 647.125 77.3125 647.75 78.6875C648.417 80.0625 648.75 81.125 648.75 81.875C648.75 83.5833 647.583 85.0417 645.25 86.25C642.958 87.4583 640.229 88.375 637.062 89C633.938 89.625 631.188 89.9375 628.812 89.9375ZM634.812 54.25C634.812 50.8333 634.146 48.1042 632.812 46.0625C631.479 43.9792 629.479 42.9375 626.812 42.9375C621.312 42.9375 617.979 46.7083 616.812 54.25H634.812Z" fill="#221F1F"/>
<path d="M482.51 119.607C449.504 147.91 399.924 165.369 356.366 168.583C295.289 173.09 238.638 154.557 194.268 120.055C190.781 117.341 193.413 113.099 197.504 115.11C244.324 137.918 300.991 149.535 358.328 145.305C396.998 142.451 438.947 131.312 476.836 111.823C482.56 108.877 487.972 114.892 482.51 119.607Z" fill="#FF9900"/>
<path d="M486.9 81.7542C492.79 81.238 498.273 81.371 502.661 81.9592C504.848 82.2524 506.871 82.673 508.585 83.2337C510.022 83.7038 511.847 84.4588 513.232 85.7864L513.503 86.0592L513.512 86.0693C514.988 87.6461 515.638 89.7639 515.984 91.345C516.374 93.1233 516.573 95.1923 516.621 97.3996C516.718 101.832 516.212 107.308 515.009 113.111C512.626 124.608 507.319 138.252 497.527 147.741L497.526 147.74C495.58 149.626 492.187 151.538 488.6 150.156C486.648 149.404 485.252 147.825 484.66 145.907C484.108 144.123 484.325 142.35 484.791 140.887C486.518 135.443 489.227 126.9 490.911 119.082C491.756 115.155 492.294 111.626 492.37 108.875C492.407 107.501 492.323 106.489 492.179 105.801C492.132 105.577 492.084 105.421 492.048 105.319C491.947 105.271 491.791 105.204 491.564 105.131C490.887 104.912 489.884 104.717 488.513 104.603C485.771 104.373 482.21 104.512 478.226 104.906C470.296 105.692 461.541 107.394 455.929 108.484L455.93 108.484C454.426 108.782 452.641 108.8 450.93 108.054C449.089 107.252 447.668 105.684 447.143 103.646C446.18 99.9059 448.502 96.7537 450.602 95.052L450.603 95.052C461.139 86.4225 475.242 82.776 486.9 81.7542Z" fill="#FF9900" stroke="white" stroke-width="10"/>
</svg>
